<?xml version="1.0" encoding="utf-8"?>
<!-- Generator: Adobe Illustrator 16.0.3, SVG Export Plug-In . SVG Version: 6.00 Build 0)  -->
<!DOCTYPE svg PUBLIC "-//W3C//DTD SVG 1.1//EN" "http://www.w3.org/Graphics/SVG/1.1/DTD/svg11.dtd">
<svg version="1.1" id="Layer_1" xmlns="http://www.w3.org/2000/svg" xmlns:xlink="http://www.w3.org/1999/xlink" x="0px" y="0px"
	 width="468.72px" height="468.72px" viewBox="0 0 468.72 468.72" enable-background="new 0 0 468.72 468.72" xml:space="preserve">
<path d="M442.223,454.518c0.514-0.832-1.416-8.65-1.602-14.4c-0.191-5.988,2.301-8.898,2.301-12.299c0-1.789-1.715-4.582-2.1-7.301
	c-0.346-2.447,0.838-5.469,0-6.9c-8.5-14.5-0.002-19-0.002-26.949c0-7-3.598-5.951-3.598-10.951c0-3.25,6.098-9.299,6.098-13.549
	s-3.5-4.25-3.5-7.75s1.5-4.75,1.5-7.75c0-1.93-1.498-4.35-2.199-6.75c-0.699-2.4-0.551-9.9-0.551-13s-3.75-9.5-3.75-11.5
	s12.701-12.9-6.25-26.75c3.375-16.375-2.273-20.576-7.648-25.951c-1.732-5.375,3.648-15.05-6.352-25.05
	c1.451-11.65-3.051-7.25-5.75-12.25s1.623-10.678,1.623-13.428c0-4.25-6.893-1.998-9.92-8.211s5.416-12.707-19.703-13.86
	c-6.375-6.375-4.25-10.25-22.75-10.25c-3.75-6.25-3.25-11.25-12.75-11.25c0-4,3-7.5,6-7.5s5.25,5.5,8,5.5c10.5-3,5.5,3,17,3
	c5.25-0.75,10.75-2,18.75-0.75c8,0,7.875-4.75,11.75-4.75c2.875,0,5.674,3.759,10.174,2.236s7.326-11.486,11.326-11.486
	s4.59,4.003,9.77,0.928c5.178-3.075,2.764-10.098,8.48-12.428c3.375-1.375,6.947,0.017,10.865-0.849
	c3.92-0.866,9.24-9.999,10.885-12.068c0-2.171-2.152-3.52-3.922-6.728c-1.646-2.984-2.859-6.552-4.305-8.48
	c-3-4-3.832-3.236-9.049-7.658c-3.734-3.164-1.723-4.801-4.057-9.801s-5.459-1.48-8.791-6.146c-3.334-4.667-0.877-4.521-3.877-9.187
	s-4.654-1.512-8.654-5.179s-3.346-6.821-9.012-11.488s-9.668,0.667-13-1.333c-3.334-2-1.666-3.666-4.334-5.333
	c-2.666-1.667-5.799-0.399-9.799-2.399s-3.43-5.166-6.5-6.7c-2.6-1.3-11.301-0.4-15.4-0.4c-5.4,0-16.1-4.3-16.1-9.8
	c0-4.5,6.383-9.118,8.049-12.451c1.691-4.227,0.188-6.106,2.051-9.549c1.602-3.5,6.457-4.083,6.5-6.7c0.025-1.564-7.398-3.8-9-3.7
	c-2.236,0.083-3.539,1.45-5.361,1.45c-2.818,0-3.689-6.75-11.439-6.75c-8,0-3.998,2.201-11.998,2.201c-6,0-3.5-3.9-10.5-3.9
	s-6.65,5.3-13.4,5.3s-5.852-5.351-14.602-5.351s-6.748,5.851-13.498,5.851S268.32,2.917,264.07,2.917s-8.098,6.801-10.348,6.801
	c-3.301-3-26.102-1.7-41.652,10.199c-16.527,12.646-16.9,34.1-17.749,38.8s1.999,11.7,1.999,17.7c0,9.75-12.75,51.28-37.22,51.28
	c-19.03,0-25.78-13.53-31.28-19.78s-35-36-34-59.5c0.25,0-20.5,18.75-20.5,18.75L442.223,454.518z"/>
<g>
	<path d="M44.228,164.313l57.492,72.273v-50.102c0-6.989-1.003-11.716-3.008-14.18c-2.75-3.322-7.362-4.927-13.836-4.813v-3.18h38.5
		v3.18c-4.928,0.631-8.236,1.447-9.926,2.449c-1.69,1.003-3.008,2.636-3.953,4.898c-0.945,2.264-1.418,6.145-1.418,11.645v97.023
		h-2.922l-78.805-97.023v74.078c0,6.703,1.532,11.229,4.598,13.578c3.064,2.35,6.574,3.523,10.527,3.523h2.75v3.18H2.892v-3.18
		c6.416-0.057,10.885-1.375,13.406-3.953c2.521-2.578,3.781-6.961,3.781-13.148v-82.242l-2.492-3.094
		c-2.464-3.094-4.641-5.127-6.531-6.102c-1.891-0.974-4.612-1.518-8.164-1.633v-3.18H44.228z"/>
	<path d="M174.398,171.017v47.438h2.32c7.391,0,12.747-2.32,16.07-6.961c3.322-4.641,5.442-11.486,6.359-20.539h3.266v61.016h-3.266
		c-0.688-6.646-2.135-12.088-4.34-16.328c-2.206-4.239-4.77-7.09-7.691-8.551s-7.162-2.191-12.719-2.191v32.828
		c0,6.417,0.271,10.342,0.816,11.773c0.544,1.433,1.561,2.607,3.051,3.523c1.489,0.917,3.896,1.375,7.219,1.375h6.961
		c10.885,0,19.607-2.521,26.168-7.563c6.56-5.041,11.271-12.719,14.137-23.031h3.18l-5.242,37.039H129.968v-3.18h3.867
		c3.38,0,6.102-0.602,8.164-1.805c1.489-0.802,2.635-2.177,3.438-4.125c0.63-1.375,0.945-4.984,0.945-10.828v-76.656
		c0-5.271-0.144-8.508-0.43-9.711c-0.573-2.005-1.633-3.552-3.18-4.641c-2.178-1.604-5.156-2.406-8.938-2.406h-3.867v-3.18h97.54
		v34.461h-3.266c-1.662-8.422-3.996-14.466-7.004-18.133c-3.008-3.666-7.262-6.359-12.762-8.078
		c-3.209-1.031-9.225-1.547-18.047-1.547H174.398z"/>
</g>
<g>
	<path d="M200.018,361.475v32.656c0,6.303,0.387,10.27,1.16,11.902s2.134,2.937,4.082,3.91c1.947,0.975,5.586,1.461,10.914,1.461
		v3.18h-59.641v-3.18c5.385,0,9.037-0.501,10.957-1.504c1.919-1.002,3.266-2.306,4.039-3.91c0.773-1.604,1.16-5.557,1.16-11.859
		v-75.625c0-6.302-0.387-10.27-1.16-11.902s-2.135-2.936-4.082-3.91c-1.948-0.974-5.586-1.461-10.914-1.461v-3.18h54.141
		c14.094,0,24.406,0.975,30.938,2.922c6.531,1.948,11.859,5.543,15.984,10.785s6.188,11.387,6.188,18.434
		c0,8.594-3.094,15.698-9.281,21.313c-3.953,3.553-9.482,6.217-16.586,7.992l28.016,39.445c3.666,5.1,6.273,8.279,7.82,9.539
		c2.349,1.776,5.07,2.75,8.164,2.922v3.18h-36.695l-37.555-53.109H200.018z M200.018,304.326v51.047h4.898
		c7.963,0,13.922-0.73,17.875-2.191s7.061-4.096,9.324-7.906c2.263-3.81,3.395-8.779,3.395-14.91c0-8.88-2.077-15.439-6.23-19.68
		c-4.154-4.239-10.843-6.359-20.066-6.359H200.018z"/>
	<path d="M392.438,298.053v3.18c-4.24,0.688-8.021,2.951-11.344,6.789c-2.406,2.865-5.987,9.597-10.742,20.195l-40.133,89.031
		h-2.836l-39.961-92.641c-4.813-11.172-8.035-17.731-9.668-19.68c-1.633-1.947-4.713-3.18-9.238-3.695v-3.18h55.859v3.18h-1.891
		c-5.042,0-8.479,0.631-10.313,1.891c-1.318,0.859-1.977,2.12-1.977,3.781c0,1.031,0.229,2.249,0.688,3.652
		c0.458,1.404,2.005,5.171,4.641,11.301l24.836,58.008l23.031-51.648c2.75-6.244,4.439-10.427,5.07-12.547
		c0.63-2.119,0.945-3.924,0.945-5.414c0-1.719-0.459-3.236-1.375-4.555c-0.917-1.317-2.264-2.32-4.039-3.008
		c-2.464-0.974-5.729-1.461-9.797-1.461v-3.18H392.438z"/>
</g>
<rect x="105.644" y="218.418" width="44" height="6.438"/>
<rect x="180.311" y="278.845" width="11" height="20.573"/>
</svg>